<?xml version="1.0" standalone="no"?>
<!DOCTYPE svg PUBLIC "-//W3C//DTD SVG 20010904//EN"
 "http://www.w3.org/TR/2001/REC-SVG-20010904/DTD/svg10.dtd">
<svg version="1.0" xmlns="http://www.w3.org/2000/svg"
 width="500.000000pt" height="500.000000pt" viewBox="0 0 500.000000 500.000000"
 preserveAspectRatio="xMidYMid meet">
<metadata>
Created by potrace 1.11, written by Peter Selinger 2001-2013
</metadata>
<g transform="translate(0.000000,500.000000) scale(0.100000,-0.100000)"
fill="#000000" stroke="none">
<path d="M1277 3732 l-1267 -1267 1233 -1233 c677 -677 1239 -1232 1247 -1232
8 0 577 562 1263 1248 1103 1103 1248 1252 1245 1275 -2 20 -306 332 -1221
1252 -670 674 -1222 1225 -1225 1225 -4 0 -577 -570 -1275 -1268z m2021 -748
c232 -48 362 -207 362 -444 0 -183 -75 -318 -217 -393 -120 -63 -264 -78 -570
-60 l-113 6 0 448 0 448 78 4 c223 9 386 6 460 -9z m-1343 -221 c38 -126 71
-234 75 -241 5 -10 91 252 142 436 l9 32 239 0 240 0 0 -450 0 -450 -170 0
-170 0 -1 238 -1 237 -35 -110 c-19 -60 -52 -168 -74 -238 l-40 -128 -136 3
-136 3 -72 232 c-39 128 -74 235 -78 239 -4 4 -7 -101 -7 -234 l0 -242 -165 0
-165 0 0 450 0 450 238 0 239 0 68 -227z m-960 -108 c165 -57 308 -106 318
-110 16 -7 17 -20 15 -117 l-3 -110 -330 -114 c-181 -62 -331 -114 -332 -114
-2 0 -3 49 -3 109 l0 109 83 25 c45 14 130 40 190 58 59 18 107 35 107 39 0 3
-48 21 -107 39 -60 18 -145 44 -190 58 l-83 25 0 110 c0 101 1 110 18 103 9
-3 152 -53 317 -110z m3375 -105 c-6 -4 -92 -31 -191 -61 -98 -29 -179 -56
-179 -59 0 -3 42 -18 93 -33 50 -16 136 -42 190 -58 l97 -30 0 -109 0 -109
-247 86 c-137 47 -287 99 -335 115 l-88 30 0 108 0 108 198 68 c108 37 258 89
332 115 l135 47 3 -106 c2 -68 -1 -108 -8 -112z"/>
<path d="M3095 2708 c-3 -7 -4 -88 -3 -178 l3 -165 51 1 c106 3 149 52 149
174 0 120 -34 161 -143 176 -40 5 -53 3 -57 -8z"/>
</g>
</svg>
